<!-- <svg xmlns="http://www.w3.org/2000/svg" xmlns:xlink="http://www.w3.org/1999/xlink">
<symbol id="icon-theme" viewBox="0 0 16 16">
<title>theme</title>
<path d="M8 0c-4.418 0-8 3.582-8 8s3.582 8 8 8 8-3.582 8-8-3.582-8-8-8zM2 8c0-3.314 2.686-6 6-6v12c-3.314 0-6-2.686-6-6z"></path>
</symbol>
</svg> -->


<svg width="46px" height="22px" viewBox="0 0 46 22" xmlns="http://www.w3.org/2000/svg" xmlns:xlink="http://www.w3.org/1999/xlink">
<symbol id="theme-dark">
    <title>themed</title>
    <g id="Page-1" stroke="none" stroke-width="1" fill="none" fill-rule="evenodd">
        <g id="Group" transform="translate(0.000000, 1.000000)" fill-rule="nonzero">
            <rect id="Rectangle-3-Copy-3" fill="#BCBCBC" x="0" y="0" width="45" height="20" rx="10"></rect>
            <circle id="Oval-Copy-7" stroke="#F8F8F8" stroke-width="1.248" fill="#333341" cx="35" cy="10" r="10"></circle>
            <path d="M35.8666667,5 C36.6194179,5 37.3390568,5.1329103 38.0003391,5.37506449 C35.8150518,6.1746119 34.2666667,8.16778499 34.2666667,10.5 C34.2666667,12.832215 35.8150518,14.8253881 38.0006538,15.625299 C37.3390568,15.8670897 36.6194179,16 35.8666667,16 C32.6265961,16 30,13.5375661 30,10.5 C30,7.46243388 32.6265961,5 35.8666667,5 Z" id="Combined-Shape-Copy-3" fill="#F8F8F8" transform="translate(34.000000, 10.500000) rotate(-30.000000) translate(-34.000000, -10.500000) "></path>
            <path d="M9,5 C9.47525556,5 9.93502426,5.06630712 10.3705597,5.19017494 C10.13522,5.57177837 10,6.02009802 10,6.5 C10,7.88071187 11.1192881,9 12.5,9 C12.979902,9 13.4282216,8.86478002 13.808937,8.63036201 C13.9336929,9.06497574 14,9.52474444 14,10 C14,12.7614237 11.7614237,15 9,15 C6.23857625,15 4,12.7614237 4,10 C4,7.23857625 6.23857625,5 9,5 Z" id="Combined-Shape-Copy" fill="#70727B"></path>
            <circle id="Oval-3-Copy-3" fill="#F8F8F8" cx="37" cy="7" r="1"></circle>
            <circle id="Oval-3-Copy-4" fill="#F8F8F8" cx="41" cy="9" r="1"></circle>
        </g>
    </g>
  </symbol>
</svg>
